<svg xmlns="http://www.w3.org/2000/svg" width="743.993" height="739.52" viewBox="0 0 743.993 739.52">
  <path id="blob" d="M453.59,37.467c21.522,12.256,44.958,21.307,68.277,29.436,48.72,16.982,95.98,29.471,119.483,58.373,35.03,42.5,18.683,120.036-7.006,183.089s-61.185,111.161-84.072,173.281c-23.353,62.587-34.563,139.185-76.132,157.868C432.1,658.2,360.177,618.963,289.183,617.094S148.13,651.19,81.339,646.986C14.549,643.25-48.972,598.879-69.99,538.16s0-137.784,28.024-198.97c27.557-60.718,62.12-106.024,85.006-163.006C66.393,118.736,78.07,49.143,116.836-5.5,156.07-60.15,221.926-99.85,279.842-84.9,306.383-78,331.13-59.43,356.885-37.567,386.493-12.434,417.405,17.113,453.59,37.467Z" transform="translate(80.555 90.203)" fill="none" stroke="#a288e3" stroke-width="4"/>
</svg>
